<?xml version="1.0" encoding="UTF-8"?>
<svg xmlns="http://www.w3.org/2000/svg" xmlns:xlink="http://www.w3.org/1999/xlink" width="400px" height="400px" viewBox="0 0 400 308" version="1.1">
<g id="surface1">
<path style=" stroke:none;fill-rule:nonzero;fill:rgb(0%,0%,0%);fill-opacity:1;" d="M 357.136719 0.5 C 354.265625 1.40625 351.738281 3.464844 349.617188 6.648438 C 348.585938 8.210938 346.5625 13.050781 332.863281 46.898438 L 327.839844 59.328125 L 7.257812 59.328125 L 5.355469 60.296875 C 2.453125 61.730469 0.800781 64.074219 0.425781 67.195312 C 0.207031 69.164062 1.703125 76.40625 2.984375 79.433594 C 3.917969 81.652344 6.507812 90.050781 19.023438 131.457031 C 21.953125 141.164062 25.171875 151.84375 26.199219 155.1875 C 27.757812 160.371094 33.375 178.917969 41.675781 206.300781 C 42.769531 209.953125 44.578125 215.980469 45.734375 219.695312 C 47.574219 225.816406 47.757812 226.722656 47.855469 229.59375 C 47.980469 234.433594 49.320312 236.777344 52.472656 237.648438 C 53.90625 238.027344 76.75 238.085938 79.679688 237.714844 C 80.804688 237.589844 81.148438 237.617188 80.992188 237.902344 C 80.867188 238.085938 80.617188 238.242188 80.429688 238.242188 C 80.242188 238.242188 79.089844 238.683594 77.871094 239.242188 C 70.226562 242.675781 63.332031 249.640625 60.054688 257.230469 C 54 271.1875 56.933594 287.171875 67.480469 297.632812 C 86.796875 316.773438 118.65625 307.65625 125.644531 281.054688 C 126.703125 277.027344 126.984375 270.03125 126.234375 265.753906 C 125.019531 258.726562 121.679688 252.140625 116.71875 246.863281 C 113.414062 243.367188 107.859375 239.773438 103.425781 238.242188 L 101.867188 237.714844 L 110.136719 237.492188 C 118.1875 237.308594 163.648438 236.839844 206.242188 236.527344 C 217.816406 236.433594 227.925781 236.277344 228.707031 236.214844 C 230.578125 236.058594 229.488281 236.496094 226.835938 236.996094 C 220.71875 238.117188 213.292969 242.273438 208.957031 246.957031 C 202.308594 254.199219 199.066406 262.347656 199.066406 271.902344 C 199.066406 281.769531 202.308594 290.015625 208.863281 296.882812 C 213.886719 302.128906 219.40625 305.316406 226.210938 306.90625 C 245.121094 311.371094 264.121094 298.851562 268.179688 279.335938 C 270.582031 267.625 266.898438 255.042969 258.597656 246.707031 C 252.890625 240.960938 246.773438 237.839844 238.691406 236.558594 C 236.695312 236.246094 239.285156 236.152344 256.945312 235.933594 C 270.332031 235.808594 277.945312 235.589844 278.695312 235.371094 C 279.351562 235.183594 280.066406 234.714844 280.316406 234.371094 C 280.566406 233.996094 281.5 232.933594 282.4375 232 C 283.875 230.5 284.4375 229.46875 286.808594 224.195312 C 288.273438 220.851562 291.113281 214.511719 293.078125 210.140625 C 300.566406 193.4375 305.027344 183.507812 308.273438 176.265625 C 310.117188 172.140625 321.003906 147.910156 332.457031 122.402344 C 343.9375 96.890625 353.488281 75.40625 353.707031 74.628906 C 353.894531 73.847656 356.980469 66.757812 360.539062 58.859375 C 364.097656 50.957031 367.28125 43.902344 367.589844 43.183594 L 368.152344 41.839844 L 374.019531 48.054688 C 377.230469 51.457031 380.449219 54.925781 381.101562 55.738281 C 384.097656 59.328125 390.089844 59.917969 393.023438 56.890625 C 396.296875 53.488281 400.324219 40.25 399.574219 35.25 C 399.386719 33.941406 399.105469 33.597656 396.484375 31.160156 C 394.894531 29.695312 392.117188 26.632812 390.339844 24.355469 C 379.199219 10.210938 377.359375 8.210938 372.832031 5.152344 C 366.03125 0.59375 361.382812 -0.78125 357.136719 0.5 Z M 309.023438 100.292969 C 306.339844 106.882812 303.9375 112.785156 303.6875 113.46875 L 303.1875 114.65625 L 301.597656 114.46875 C 300.722656 114.375 242.621094 114.28125 172.511719 114.28125 L 44.984375 114.28125 L 44.359375 111.847656 C 41.113281 99.636719 38.371094 89.023438 38.371094 88.710938 C 38.371094 88.460938 73.035156 88.363281 176.101562 88.363281 L 313.859375 88.363281 Z M 291.300781 143.851562 C 291.175781 144.164062 289.523438 148.316406 287.617188 153.0625 L 284.125 161.742188 L 57.527344 161.742188 L 55.25 153.0625 C 54 148.316406 52.910156 144.164062 52.847656 143.851562 C 52.691406 143.351562 58.523438 143.320312 172.074219 143.320312 C 285.683594 143.320312 291.488281 143.351562 291.300781 143.851562 Z M 268.738281 199.585938 C 266.773438 204.457031 265.089844 208.613281 264.996094 208.800781 C 264.871094 209.113281 245.089844 209.203125 167.550781 209.203125 C 108.140625 209.203125 70.164062 209.082031 70.039062 208.925781 C 69.882812 208.644531 65.203125 191.25 65.203125 190.90625 C 65.203125 190.84375 111.820312 190.78125 168.765625 190.78125 L 272.328125 190.78125 Z M 268.738281 199.585938 "/>
</g>
</svg>
